<svg width="32" height="32" viewBox="0 0 32 32" fill="currentColor" xmlns="http://www.w3.org/2000/svg">
<path d="M24.5118 10.666H25.927C27.0742 10.666 28.0026 11.5944 28.0026 12.7415V25.9324C28.0026 27.0782 27.0742 28.0066 25.927 28.0066H11.4037C10.2565 28.0066 9.32812 27.0782 9.32812 25.931V24.0049" stroke="currentColor" stroke-width="1.5" stroke-linecap="round" stroke-linejoin="round" fill="none"/>
<path fill-rule="evenodd" clip-rule="evenodd" d="M5.32754 24.0045H20.4165C21.3089 24.0045 22.1412 23.559 22.6361 22.816L23.6152 21.3461C24.1994 20.4697 24.5115 19.44 24.5115 18.3862V7.99786C24.5115 6.52391 23.3177 5.33008 21.8437 5.33008H8.50486C7.03091 5.33008 5.83708 6.52391 5.83708 7.99786V17.4098C5.83708 18.2381 5.64367 19.0545 5.27418 19.7961L4.13504 22.0744C3.69085 22.9614 4.33646 24.0045 5.32754 24.0045Z" stroke="currentColor" stroke-width="1.5" stroke-linecap="round" stroke-linejoin="round" fill="none"/>
<path d="M18.1991 12.791L14.4469 16.5432L12.1953 14.293" stroke="currentColor" stroke-width="1.5" stroke-linecap="round" stroke-linejoin="round" fill="none"/>
<path d="M11.1669 3.99609V6.66387" stroke="currentColor" stroke-width="1.5" stroke-linecap="round" stroke-linejoin="round" fill="none"/>
<path d="M19.1708 3.99609V6.66387" stroke="currentColor" stroke-width="1.5" stroke-linecap="round" stroke-linejoin="round" fill="none"/>
</svg>
