<svg width="24" height="24" viewBox="0 0 24 24" fill="currentColor" xmlns="http://www.w3.org/2000/svg">
<path d="M18.3639 5.63604C21.8787 9.15076 21.8787 14.8492 18.3639 18.3639C14.8492 21.8787 9.15074 21.8787 5.63604 18.3639C2.12132 14.8492 2.12132 9.15074 5.63604 5.63604C9.15076 2.12132 14.8492 2.12132 18.3639 5.63604" stroke="currentColor" stroke-width="1.5" stroke-linecap="round" stroke-linejoin="round" fill="none"/>
<path fill-rule="evenodd" clip-rule="evenodd" d="M15.583 10.292L12.56 8.177C12.223 7.941 11.775 7.941 11.439 8.177L8.417 10.292C8.156 10.475 8 10.774 8 11.093V15.022C8 15.562 8.438 16 8.978 16H15.022C15.562 16 16 15.562 16 15.022V11.093C16 10.774 15.844 10.475 15.583 10.292V10.292Z" stroke="currentColor" stroke-width="1.5" stroke-linecap="round" stroke-linejoin="round" fill="none"/>
</svg>
