<svg width="18" height="18" viewBox="0 0 18 18" fill="currentColor" xmlns="http://www.w3.org/2000/svg">
<path fill-rule="evenodd" clip-rule="evenodd" d="M2.24609 5.24832C2.24609 3.59078 3.5898 2.24707 5.24734 2.24707H12.7505C14.408 2.24707 15.7517 3.59078 15.7517 5.24832V12.7514C15.7517 14.409 14.408 15.7527 12.7505 15.7527H5.24734C3.5898 15.7527 2.24609 14.409 2.24609 12.7514V5.24832Z" stroke="currentColor" stroke-width="1.5" stroke-linecap="round" stroke-linejoin="round" fill="none" />
<path d="M9 12.0014L12.4409 8.56046C13.0269 7.97464 13.9768 7.97464 14.5628 8.56046L15.7528 9.75045" stroke="currentColor" stroke-width="1.5" stroke-linecap="round" stroke-linejoin="round" fill="none" />
<ellipse cx="5.62156" cy="5.62352" rx="1.12547" ry="1.12547" stroke="currentColor" stroke-width="1.5" stroke-linecap="round" stroke-linejoin="round" fill="none" />
<path d="M2.51172 13.9843L5.68554 10.8105C6.27153 10.2246 7.22143 10.2246 7.80742 10.8105L12.6222 15.6252" stroke="currentColor" stroke-width="1.5" stroke-linecap="round" stroke-linejoin="round" fill="none" />
</svg>
