<svg width="18" height="18" viewBox="0 0 18 18" fill="none" xmlns="http://www.w3.org/2000/svg">
<path d="M15.4385 0H2.56154C1.10769 0 0 1.10769 0 2.56154V15.4385C0 16.8923 1.10769 18 2.56154 18H15.4385C16.8923 18 18 16.8923 18 15.4385V2.56154C18 1.10769 16.8923 0 15.4385 0ZM9 14.4C11.9769 14.4 14.4 12.0462 14.4 9.20769C14.4 8.72308 14.3308 8.16923 14.1923 7.75385H15.7154V15.0923C15.7154 15.4385 15.4385 15.7846 15.0231 15.7846H2.97693C2.63077 15.7846 2.28462 15.5077 2.28462 15.0923V7.68461H3.87693C3.73847 8.16923 3.66923 8.65385 3.66923 9.13846C3.6 12.0462 6.02308 14.4 9 14.4ZM9 12.3231C7.06154 12.3231 5.53846 10.8 5.53846 8.93077C5.53846 7.06154 7.06154 5.53846 9 5.53846C10.9385 5.53846 12.4615 7.06154 12.4615 8.93077C12.4615 10.8692 10.9385 12.3231 9 12.3231ZM15.6462 4.91538C15.6462 5.33077 15.3 5.67692 14.8846 5.67692H12.9462C12.5308 5.67692 12.1846 5.33077 12.1846 4.91538V3.04615C12.1846 2.63077 12.5308 2.28461 12.9462 2.28461H14.8846C15.3 2.28461 15.6462 2.63077 15.6462 3.04615V4.91538Z" fill="currentColor"/>
</svg>
