<svg width="27" height="26" viewBox="0 0 27 26" fill="currentColor" xmlns="http://www.w3.org/2000/svg">
<path d="M24.0085 19.6699C24.0085 20.0492 23.9242 20.4391 23.7451 20.8185C23.5659 21.1978 23.3341 21.5561 23.0285 21.8933C22.5122 22.4623 21.9431 22.8733 21.3003 23.1368C20.6681 23.4002 19.9831 23.5372 19.2455 23.5372C18.1707 23.5372 17.022 23.2843 15.8102 22.7679C14.5984 22.2516 13.3866 21.5561 12.1853 20.6815C10.9734 19.7963 9.82484 18.8163 8.72893 17.7309C7.64355 16.635 6.66355 15.4864 5.78893 14.2851C4.92484 13.0839 4.22936 11.8826 3.72355 10.6918C3.21775 9.49052 2.96484 8.34191 2.96484 7.246C2.96484 6.52944 3.0913 5.8445 3.3442 5.21224C3.5971 4.56944 3.99753 3.97933 4.55603 3.45245C5.23044 2.78858 5.96807 2.46191 6.74785 2.46191C7.04291 2.46191 7.33796 2.52514 7.6014 2.65159C7.87538 2.77804 8.11775 2.96772 8.30742 3.2417L10.7522 6.68751C10.9418 6.95095 11.0788 7.19331 11.1737 7.42514C11.2685 7.64643 11.3212 7.86772 11.3212 8.06794C11.3212 8.32084 11.2474 8.57374 11.0999 8.81611C10.9629 9.05847 10.7627 9.31138 10.5098 9.56428L9.70893 10.3968C9.59302 10.5127 9.54033 10.6497 9.54033 10.8183C9.54033 10.9026 9.55087 10.9763 9.57194 11.0606C9.60355 11.1449 9.63517 11.2082 9.65624 11.2714C9.84592 11.6191 10.1726 12.0722 10.6362 12.6202C11.1104 13.1682 11.6162 13.7266 12.1642 14.2851C12.7332 14.8436 13.2812 15.36 13.8397 15.8342C14.3876 16.2978 14.8408 16.614 15.199 16.8036C15.2517 16.8247 15.315 16.8563 15.3887 16.8879C15.473 16.9195 15.5573 16.9301 15.6522 16.9301C15.8313 16.9301 15.9683 16.8669 16.0842 16.7509L16.8851 15.9606C17.1485 15.6972 17.4014 15.497 17.6438 15.3705C17.8861 15.223 18.1285 15.1492 18.3919 15.1492C18.5922 15.1492 18.8029 15.1914 19.0347 15.2862C19.2666 15.3811 19.5089 15.518 19.7724 15.6972L23.2603 18.1735C23.5343 18.3632 23.724 18.5845 23.8399 18.8479C23.9453 19.1114 24.0085 19.3748 24.0085 19.6699Z" stroke="currentColor" stroke-width="1.5" stroke-miterlimit="10" fill="none"/>
<path d="M20.3522 9.83856C20.3522 9.2063 19.857 8.23684 19.1193 7.44652C18.4449 6.71942 17.5492 6.15039 16.6641 6.15039" stroke="currentColor" stroke-width="1.5" stroke-linecap="round" stroke-linejoin="round" fill="none"/>
<path d="M24.0404 9.83826C24.0404 5.76019 20.7421 2.46191 16.6641 2.46191" stroke="currentColor" stroke-width="1.5" stroke-linecap="round" stroke-linejoin="round" fill="none"/>
</svg>
