<svg width="26" height="26" viewBox="0 0 26 26" fill="currentColor" xmlns="http://www.w3.org/2000/svg">
<path fill-rule="evenodd" clip-rule="evenodd" d="M13.0013 23.8327C18.9844 23.8327 23.8346 18.9824 23.8346 12.9993C23.8346 7.01626 18.9844 2.16602 13.0013 2.16602C7.01822 2.16602 2.16797 7.01626 2.16797 12.9993C2.16797 18.9824 7.01822 23.8327 13.0013 23.8327Z" stroke="currentColor" stroke-width="1.5" stroke-linecap="round" stroke-linejoin="round" fill="none" />
<path d="M10.4542 15.541C12.8191 17.907 15.8156 19.415 17.5977 17.6405L18.03 17.2083C18.6063 16.633 18.5261 15.6797 17.8566 15.2149C17.4352 14.9214 16.9824 14.6061 16.4819 14.254C15.9641 13.89 15.2545 13.9474 14.8049 14.3927L14.3163 14.878C13.7107 14.4945 13.1116 14.0016 12.5548 13.4459L12.5526 13.4437C11.9969 12.8879 11.504 12.2878 11.1205 11.6822L11.6058 11.1936C12.0521 10.7451 12.1074 10.0344 11.7445 9.51661C11.3913 9.01611 11.0761 8.56328 10.7836 8.14186C10.3188 7.47344 9.36548 7.39328 8.79023 7.96853L8.35798 8.40078C6.58456 10.1829 8.09148 13.1772 10.4564 15.5443" stroke="currentColor" stroke-width="1.5" stroke-linecap="round" stroke-linejoin="round" fill="none" />
</svg>
