<svg width="32" height="32" viewBox="0 0 32 32" fill="none" xmlns="http://www.w3.org/2000/svg">
<path d="M13.7817 4.20898C11.0598 4.71929 8.59859 6.15642 6.81641 8.27609" stroke="#FFF0E0" stroke-width="1.5" stroke-linecap="round" stroke-linejoin="round"/>
<path d="M4.65081 12.1094C3.75186 14.6915 3.77486 17.5053 4.71592 20.0724" stroke="#FFF0E0" stroke-width="1.5" stroke-linecap="round" stroke-linejoin="round"/>
<path d="M6.94531 23.8672C8.71595 25.9098 11.1255 27.2934 13.7822 27.7929" stroke="#FFF0E0" stroke-width="1.5" stroke-linecap="round" stroke-linejoin="round"/>
<path d="M18.1797 4.20312C23.8708 5.2515 28.0022 10.2134 28.0022 16.0003C28.0022 21.7871 23.8708 26.7491 18.1797 27.7975" stroke="#FFF0E0" stroke-width="1.5" stroke-linecap="round" stroke-linejoin="round"/>
<path fill-rule="evenodd" clip-rule="evenodd" d="M14.5881 12.0768L19.7662 15.1394C20.0707 15.3194 20.2574 15.6468 20.2574 16.0004C20.2574 16.3541 20.0707 16.6815 19.7662 16.8615L14.5881 19.9241C14.2787 20.107 13.895 20.1099 13.5828 19.9318C13.2707 19.7537 13.078 19.4218 13.0781 19.0624V12.9385C13.078 12.5791 13.2707 12.2472 13.5828 12.0691C13.895 11.8909 14.2787 11.8939 14.5881 12.0768V12.0768Z" stroke="#FFF0E0" stroke-width="1.5" stroke-linecap="round" stroke-linejoin="round"/>
</svg>
