<svg width="23" height="18" viewBox="0 0 23 18" fill="none" xmlns="http://www.w3.org/2000/svg">
<path d="M23 7.02524C23 6.51009 22.9161 5.90909 22.9161 5.22222C22.8321 4.53535 22.7482 3.84848 22.6642 3.24747C22.4964 2.5606 22.2445 2.04546 21.7409 1.61616C21.3212 1.18687 20.7336 0.929288 20.146 0.843429C18.2153 0.585853 15.3613 0.5 11.5 0.5C7.6387 0.5 4.70073 0.585853 2.85401 0.843429C2.26642 0.929288 1.67883 1.18687 1.25912 1.61616C0.839416 2.04546 0.503645 2.5606 0.335761 3.24747C0.167878 3.84848 0.0839467 4.44949 0.0839467 5.22222C5.12254e-06 5.90909 0 6.51009 0 7.02524C0 7.5404 0 8.14141 0 8.99999C0 9.85858 0 10.5455 0 10.9747C0 11.4899 0.0839467 12.0909 0.0839467 12.7778C0.167888 13.4646 0.25182 14.1515 0.335761 14.7525C0.503645 15.4394 0.755475 15.9545 1.25912 16.3838C1.67883 16.8131 2.26642 17.0707 2.85401 17.1566C4.78467 17.4141 7.6387 17.5 11.5 17.5C15.3613 17.5 18.2993 17.4141 20.146 17.1566C20.7336 17.0707 21.3212 16.8131 21.7409 16.3838C22.1606 15.9545 22.4964 15.4394 22.6642 14.7525C22.8321 14.1515 22.9161 13.5505 22.9161 12.7778C23 12.0909 23 11.4899 23 10.9747C23 10.4596 23 9.85858 23 8.99999C23 8.14141 23 7.45454 23 7.02524ZM15.9489 9.68686L9.31753 13.8939C9.23358 13.9798 9.0657 14.0657 8.89782 14.0657C8.72993 14.0657 8.64599 14.0657 8.47811 13.9798C8.22628 13.8081 8.0584 13.5505 8.0584 13.2071V4.70707C8.0584 4.36363 8.22628 4.10606 8.47811 3.93434C8.72993 3.76263 9.0657 3.76263 9.31753 3.93434L15.9489 8.14141C16.2007 8.31312 16.3686 8.5707 16.3686 8.82828C16.3686 9.08586 16.2007 9.51515 15.9489 9.68686Z" fill="currentColor"/>
</svg>
