<svg width="72" height="71" viewBox="0 0 72 71" fill="none" xmlns="http://www.w3.org/2000/svg">
<path d="M23.1576 40.8673C22.7394 40.761 21.6224 40.8472 21.2787 40.7582C20.935 40.6691 18.2368 42.9118 16.8534 43.7561C15.4699 44.6003 12.2734 45.9815 12.2734 45.9815C12.2734 45.9815 7.99131 48.3965 7.69056 49.6399C7.69056 49.6399 7.54735 50.5502 7.14062 50.6938C7.29243 50.7426 7.42705 50.7799 7.52157 50.8029C8.09443 50.9465 8.27201 49.7433 8.27201 49.7433C8.57562 48.4999 12.8548 46.0849 12.8548 46.0849C12.8548 46.0849 16.0313 44.7094 17.4148 43.8652C18.7982 43.021 21.5078 40.7811 21.8515 40.8673C22.1952 40.9534 23.3094 40.8673 23.7305 40.9764C24.0685 41.0626 24.8275 40.83 25.4319 40.8185C25.3731 40.7874 25.3105 40.7642 25.2457 40.7496C24.6356 40.5801 23.5672 40.9793 23.1576 40.8673Z" fill="#B07333"/>
<path d="M10.4564 42.6631C10.9067 42.1427 11.3848 41.6471 11.8885 41.1786C12.9328 40.2534 14.035 39.3959 15.1882 38.6114C15.3093 38.5299 15.4031 38.4137 15.4572 38.2779C15.5114 38.1421 15.5234 37.9932 15.4918 37.8504C16.9382 37.6551 18.3159 37.1469 19.0148 35.9035C21.0198 34.5079 23.5261 33.3708 23.9442 30.66C23.9442 30.6428 23.9442 30.6227 23.9442 30.6055C23.5858 30.6767 23.2213 30.7133 22.8558 30.7146L14.0854 31.0017C13.9648 31.0126 13.8432 30.9999 13.7274 30.9644C13.6722 30.9422 13.6225 30.9085 13.5815 30.8654C13.5405 30.8223 13.5091 30.7709 13.4896 30.7146C13.4699 30.8396 13.4779 30.9675 13.513 31.0891C13.5482 31.2107 13.6096 31.323 13.693 31.4181C13.8173 31.544 13.9086 31.6988 13.9585 31.8687C14.0085 32.0386 14.0157 32.2182 13.9794 32.3916C13.8019 33.1181 13.3293 34.2638 13.3808 34.9358C13.4324 35.6077 14.2859 37.3967 14.1542 37.9423C14.0224 38.4879 12.9197 39.3321 12.9197 39.3321C11.7553 40.2231 10.6635 41.2054 9.65439 42.2697C8.2509 43.8089 6.01677 46.4019 5.27779 47.4386C4.53881 48.4752 4.76795 49.1787 4.76795 49.1787C4.84322 49.3061 4.93258 49.4246 5.03433 49.5319C5.12312 48.7221 5.94516 47.7487 6.54952 47.0681C7.36584 46.1492 8.26809 45.328 9.07868 44.3918C9.56274 43.8146 9.97806 43.2145 10.4564 42.6631Z" fill="#B07333"/>
<path d="M13.9529 25.1548C13.9102 25.2014 13.8632 25.2437 13.8125 25.2812C14.371 26.4901 14.4971 29.333 14.5143 29.7809L14.6718 29.7637L23.9549 28.885C23.7909 27.8877 23.481 26.9201 23.0355 26.0134C22.297 24.4966 21.4033 23.0608 20.3688 21.7291C20.3492 21.7013 20.3272 21.6754 20.3029 21.6515C20.4032 20.5288 19.4437 18.5301 19.1572 18.042C18.2279 16.5687 17.0639 15.2581 15.7115 14.1625C15.49 13.9488 15.2535 13.7511 15.004 13.571C14.8555 13.4405 14.6619 13.3737 14.4647 13.385C14.2676 13.3963 14.0827 13.4847 13.95 13.6313C13.9267 13.6582 13.9057 13.687 13.887 13.7174C13.3882 15.9761 12.4114 18.1011 11.0227 19.9487C10.1806 21.0657 9.14088 22.2459 9.10938 23.6099C9.63541 23.8151 10.179 23.9718 10.7334 24.078C11.3594 24.1983 12.0066 24.1396 12.6009 23.9086C13.423 23.5582 14.0044 22.8059 14.52 22.065C14.6579 22.1027 14.7817 22.1802 14.876 22.288C14.9702 22.3957 15.0307 22.5289 15.0499 22.6709C15.0859 22.9573 15.0474 23.2481 14.9382 23.5152C14.7259 24.1239 14.3905 24.6822 13.9529 25.1548Z" fill="#B07333"/>
<path d="M71.9132 59.7649C71.4578 58.9867 69.891 53.4073 69.5072 52.7526C69.1234 52.0978 69.0318 49.2464 68.9 47.3138C68.7683 45.3813 67.9834 42.8887 67.3132 41.0854C66.643 39.2821 63.7128 35.6294 61.6162 33.6194C59.5195 31.6093 54.762 30.8368 54.4183 30.7478C54.3717 30.7416 54.3245 30.7416 54.2779 30.7478C55.5668 31.0062 59.256 31.8131 61.0347 33.5275L61.1837 33.6739C61.105 33.8038 61.0634 33.9527 61.0634 34.1046C61.0634 34.2566 61.105 34.4055 61.1837 34.5354C62.5127 37.0451 64.8213 38.8915 66.0186 41.4759L66.0558 41.5621C65.6667 41.9134 65.2093 42.1803 64.7124 42.346C64.426 42.4379 64.0651 42.5959 64.0995 42.8974C64.1339 43.1989 64.4661 43.2592 64.7296 43.2391C65.0555 43.204 65.3687 43.0931 65.6443 42.9151C65.9198 42.7371 66.15 42.497 66.3164 42.2139C66.4138 42.5011 66.4969 42.7739 66.5685 43.061C66.2051 43.3638 65.7883 43.5956 65.3397 43.7445C65.0533 43.8364 64.6953 43.9943 64.7296 44.2958C64.764 44.5973 65.0991 44.6576 65.3626 44.6375C65.6327 44.6116 65.8949 44.5319 66.1339 44.4032C66.3729 44.2745 66.5839 44.0994 66.7547 43.8881C66.8177 44.2212 66.875 44.56 66.9151 44.8988C66.5564 45.1958 66.1455 45.4227 65.7035 45.5679C65.4171 45.6627 65.0619 45.8177 65.0963 46.1193C65.1306 46.4208 65.4743 46.4782 65.735 46.4581C66.241 46.4098 66.7113 46.1756 67.0554 45.8005C67.0554 45.8005 67.0955 45.8005 67.0955 45.8177C67.0955 45.9125 67.0669 46.0331 67.0755 46.1365C67.2359 47.9542 67.3046 49.7834 67.8059 51.5436C67.8292 51.6399 67.8731 51.7299 67.9346 51.8075C67.9961 51.885 68.0736 51.9483 68.1619 51.9928C68.2502 52.0373 68.3471 52.0621 68.4458 52.0653C68.5446 52.0686 68.6429 52.0503 68.7339 52.0117C68.7684 52.243 68.8379 52.4677 68.9401 52.6779C69.3268 53.3326 70.8907 58.9121 71.3461 59.6902C71.8015 60.4684 70.3637 61.8755 69.301 61.9875C68.2384 62.0995 67.9204 63.3888 67.9204 63.3888L67.6512 64.6408L67.2788 65.1663C67.2788 65.1663 65.546 64.971 65.3168 65.9014C65.1858 66.6368 65.1781 67.3889 65.2939 68.1269L64.9616 68.8993V68.885C64.8739 68.7482 64.7412 68.6466 64.5864 68.5978C64.5714 68.4809 64.5307 68.3687 64.4673 68.2694C64.404 68.1701 64.3194 68.0862 64.2198 68.0235C64.0864 67.9372 63.9477 67.8595 63.8045 67.7909L63.7271 67.7364C63.6503 67.6742 63.5767 67.608 63.5066 67.5382C63.4935 67.52 63.4781 67.5036 63.4608 67.4894C63.5654 67.5024 63.6715 67.492 63.7716 67.459C63.8717 67.4259 63.9633 67.371 64.0397 67.2983C64.1161 67.2255 64.1755 67.1366 64.2136 67.0381C64.2516 66.9396 64.2675 66.8338 64.2599 66.7284C64.2656 66.4093 64.2914 66.0909 64.3372 65.7751C64.4355 65.4888 64.5632 65.2136 64.7182 64.9538C65.1265 64.3095 65.4292 63.6037 65.6147 62.8633C65.7522 62.2143 66.2993 61.6917 66.2391 61.0341C66.7661 60.0664 66.6057 58.8833 66.4052 57.7634C66.3021 57.1891 66.4052 56.4425 65.9985 56.0577C65.7837 55.0699 64.8012 54.4784 64.0193 53.726C63.1228 52.8645 62.8478 51.9198 61.7938 51.2708C61.7938 51.1502 61.1121 50.9636 61.029 50.8372C60.4848 50.0102 59.3964 49.9183 58.8579 49.1143C58.8145 49.0466 58.7614 48.9856 58.7003 48.9334C58.7115 48.8504 58.7061 48.7661 58.6845 48.6852C58.6628 48.6044 58.6254 48.5287 58.5743 48.4624C56.9932 46.55 55.395 44.5973 54.8508 42.0905C54.6274 41.0481 54.5099 39.9741 54.1089 38.9806C53.8932 38.4234 53.5677 37.9155 53.1519 37.4873C52.736 37.059 52.2384 36.7192 51.6886 36.488C51.5112 36.4004 51.3067 36.3858 51.1187 36.4475C50.9308 36.5093 50.7745 36.6424 50.6832 36.8183C50.6638 36.8577 50.6484 36.8991 50.6374 36.9417C50.528 36.8844 50.414 36.8364 50.2966 36.7982C50.0813 36.4697 49.7892 36.1988 49.4458 36.0092C49.1024 35.8195 48.718 35.7168 48.326 35.7098C47.781 35.7248 47.2603 35.9394 46.8623 36.3129C46.5967 36.638 46.4448 37.0415 46.4298 37.4615C46.35 37.9599 46.2254 38.4501 46.0574 38.926C45.877 39.5577 45.7367 40.2067 45.6135 40.8557C45.5906 40.9619 45.5734 41.0711 45.5533 41.1802C45.4097 41.5743 45.2948 41.9783 45.2096 42.3891C45.1376 42.7936 45.1126 43.205 45.1352 43.6153L45.1094 43.7847C45.3022 43.945 45.503 44.0954 45.7109 44.2355C47.0342 45.1113 48.4348 47.4919 49.5776 48.6089C50.7205 49.7259 53.874 50.7769 54.8565 51.3598C55.8389 51.9428 57.5976 52.3907 57.5976 52.3907C58.8582 53.171 60.0597 54.0435 61.1923 55.001C62.7934 56.4023 63.7185 58.7828 63.604 59.2509L62.8192 62.4355C62.8192 62.4355 61.6047 62.3723 61.1292 62.6623C60.6538 62.9523 60.5192 65.2467 60.3187 66.0479C60.1182 66.849 60.2471 68.0723 60.4905 68.4858C60.734 68.8993 62.0831 70.091 62.7304 70.5849C63.3777 71.0788 65.3913 69.3243 65.3913 69.3243L65.8696 68.2102C65.7538 67.4722 65.7615 66.7201 65.8925 65.9847C66.1217 65.0543 67.8574 65.2496 67.8574 65.2496L68.2298 64.7241L68.4961 63.4721C68.4961 63.4721 68.8112 62.1914 69.8739 62.0708C70.9365 61.9502 72.3715 60.5431 71.9132 59.7649Z" fill="#B07333"/>
<path d="M44.5789 5.0127C44.4854 5.33572 44.3617 5.64915 44.2094 5.94882C44.0582 6.25091 43.99 6.58789 44.0118 6.92516C44.025 7.09259 44.0897 7.25178 44.1969 7.38085C44.3041 7.50992 44.4485 7.60252 44.6104 7.64592C44.5101 7.44778 44.6677 5.66741 44.6992 5.49512C44.7187 5.4109 44.718 5.32324 44.697 5.23937C44.6761 5.15549 44.6356 5.0778 44.5789 5.0127Z" fill="#B07333"/>
<path d="M27.3606 49.4827C27.3776 49.4549 27.3929 49.4262 27.4064 49.3966C27.8533 48.4346 28.0566 47.3865 28.3259 46.3757C28.5951 45.3649 29.1021 44.5838 29.6177 43.7166C30.0192 43.1109 30.285 42.4251 30.3967 41.7065C30.461 40.8025 30.2341 39.9016 29.7494 39.1365C29.7762 38.5747 29.7685 38.0118 29.7265 37.4509C29.7228 37.3479 29.697 37.247 29.6511 37.1549C29.6051 37.0627 29.54 36.9815 29.4601 36.9168C29.4601 36.7818 29.4601 36.6497 29.4601 36.5148C29.5381 36.4614 29.6039 36.3921 29.6532 36.3114C29.7026 36.2307 29.7344 36.1405 29.7466 36.0467C30.053 34.1314 30.8579 32.0868 32.4418 30.9324C33.2696 30.3294 34.1604 29.8441 34.971 29.1952C35.898 28.4797 36.5667 27.4806 36.8757 26.3494C36.9053 26.2429 36.9112 26.1311 36.8929 26.0221C37.0859 25.8073 37.2348 25.5565 37.3311 25.2841C37.566 24.6064 37.2424 23.966 36.7841 23.4894C36.8463 23.4262 36.8945 23.3505 36.9256 23.2674C36.9567 23.1843 36.9699 23.0955 36.9645 23.0069C38.3428 21.7253 39.1723 19.9581 39.2789 18.0765C39.3371 17.2137 39.3016 16.3471 39.1729 15.4921C39.276 14.7225 39.4077 13.7232 39.1729 12.9392C39.4174 12.7467 39.5998 12.4859 39.697 12.1898C39.751 11.9485 39.7567 11.699 39.714 11.4555C39.6712 11.212 39.5807 10.9795 39.4479 10.7712C39.2905 10.4824 39.0981 10.2143 38.875 9.97293L38.8464 10.0878L38.5313 10.1222C38.3838 10.1962 38.2207 10.2336 38.0558 10.2314C37.9277 10.2306 37.8007 10.2073 37.6806 10.1624C37.3512 10.1136 36.6867 10.0074 35.8961 9.85807C35.8131 10.5128 35.5553 11.6786 35.054 12.3965C34.9994 12.4964 34.9277 12.5858 34.8421 12.6607C34.8245 12.6746 34.8035 12.6833 34.7813 12.6858C34.7591 12.6884 34.7366 12.6847 34.7164 12.6751C34.6961 12.6656 34.679 12.6506 34.6668 12.6318C34.6546 12.613 34.6478 12.5912 34.6473 12.5688C34.6351 12.5007 34.6401 12.4306 34.6616 12.3649C35.1772 10.7454 35.1514 10.2859 35.1027 9.703L34.7361 9.62834C34.6645 10.2342 34.4296 11.3226 33.9399 11.983C33.8864 12.0762 33.8165 12.1589 33.7336 12.2271C33.7157 12.2397 33.6949 12.2474 33.6732 12.2495C33.6514 12.2516 33.6295 12.2479 33.6096 12.239C33.5896 12.23 33.5724 12.216 33.5595 12.1983C33.5466 12.1806 33.5385 12.1598 33.536 12.1381C33.5205 12.0759 33.5205 12.0108 33.536 11.9486C34.0286 10.4238 33.9885 10.0074 33.9284 9.44743C33.7852 9.41584 33.642 9.37851 33.5045 9.34406C31.5224 8.83866 28.8357 8.46249 28.4376 7.78193C28.4376 7.78193 27.9764 6.37486 28.0538 6.05899C28.1566 5.75642 28.2951 5.46722 28.4662 5.19752C28.4662 5.19752 28.9216 4.18099 28.8644 3.76174C28.8535 3.52338 28.9304 3.28934 29.0804 3.10406C29.2303 2.91877 29.4429 2.79516 29.6778 2.7567C30.1275 2.7567 33.3011 3.29655 33.9943 3.33101C34.5671 3.3626 36.5721 3.20753 37.1822 3.15872C37.0563 3.09937 36.922 3.05967 36.7841 3.04098C36.7841 3.04098 34.106 3.26783 33.4128 3.22763C32.7197 3.18743 29.5461 2.65332 29.0964 2.65332C28.9629 2.66742 28.8345 2.7127 28.7216 2.7855C28.6087 2.85831 28.5144 2.95662 28.4462 3.07257C28.3264 3.23907 28.2677 3.44196 28.28 3.64688C28.3373 4.07474 27.8819 5.08266 27.8819 5.08266C27.7096 5.35254 27.5692 5.64165 27.4637 5.94413C27.4064 6.1796 27.6499 7.03532 27.7731 7.44308C27.6384 7.43857 27.5053 7.47368 27.3903 7.5441C27.2752 7.61452 27.1833 7.71716 27.1257 7.83936C26.9568 8.17533 27.0656 8.72093 27.4494 8.86451C27.6642 8.94491 27.8791 9.0167 28.0967 9.08849C28.1026 9.12357 28.1112 9.15813 28.1225 9.19186L28.0595 9.25217C27.9315 9.40586 27.8665 9.60256 27.8776 9.80248C27.8888 10.0024 27.9753 10.1906 28.1197 10.329C29.3914 11.7648 31.2703 12.3161 32.9889 12.9794C33.7965 13.2581 34.5582 13.6558 35.2488 14.1597C35.961 14.7381 36.4559 15.5421 36.6523 16.4397V16.477C36.6294 16.918 36.5797 17.3572 36.5034 17.7922C36.2513 19.2567 35.8131 20.681 35.478 22.1254C35.4026 22.0921 35.3212 22.0749 35.2388 22.0749C35.1564 22.0749 35.075 22.0921 34.9996 22.1254C31.6055 23.6444 29.6979 27.0731 28.4118 30.4529C27.7616 32.1414 27.2375 33.8787 26.719 35.6217C26.1863 37.4078 26.2837 39.2399 26.192 41.0777C26.388 41.2574 26.5324 41.4864 26.6102 41.741C26.6102 41.741 26.4183 43.507 26.1691 45.1869C25.3986 50.683 25.3299 51.8632 26.3037 52.2911C26.3378 52.2632 26.3685 52.2314 26.3954 52.1963C26.9682 51.4555 27.1773 50.528 27.3291 49.6119L27.3606 49.4827Z" fill="#B07333"/>
<path d="M32.9995 41.0372C32.8735 41.5426 33.1113 42.8807 32.9509 43.5412C32.7905 44.2016 31.6047 45.3847 31.6047 45.3847C31.6047 45.3847 31.049 46.6482 30.9631 46.9986C30.8771 47.3489 30.8914 48.6928 30.4847 48.9397C30.1034 49.1324 29.7005 49.279 29.2846 49.3762C29.2846 49.3762 28.3107 50.8608 28.242 51.1336C28.1036 51.4799 27.8671 51.7781 27.5617 51.9914C27.2564 52.2046 26.8955 52.3237 26.5234 52.3339L26.6838 52.3799C28.0186 52.7216 28.7633 51.5184 28.8292 51.2312C28.8951 50.9441 29.8689 49.4767 29.8689 49.4767C30.2858 49.3797 30.6896 49.2331 31.0719 49.0402C31.4786 48.7933 31.4643 47.4465 31.5502 47.0962C31.6362 46.7459 32.189 45.4852 32.189 45.4852C32.189 45.4852 33.3748 44.3022 33.5352 43.6417C33.6956 42.9812 33.4607 41.6316 33.5867 41.1348C33.6612 40.8247 34.0994 40.8103 34.4202 40.8477L34.1968 40.8075C34.1968 40.8075 33.1227 40.5318 32.9995 41.0372Z" fill="#B07333"/>
<path d="M35.8672 41.1074C37.1905 41.3429 39.4618 41.7306 41.2406 41.9402L41.5069 41.9775C41.2231 41.9158 40.9363 41.8688 40.6477 41.8368C39.1181 41.6559 37.2105 41.3429 35.8672 41.1074Z" fill="#B07333"/>
<path d="M9.56683 24.1492L11.2539 24.5943C11.2841 24.6024 11.3157 24.6043 11.3467 24.5999C11.3778 24.5954 11.4076 24.5847 11.4343 24.5684L11.5575 24.4938L13.0383 24.7809C12.7789 24.5871 12.4701 24.4706 12.1475 24.445L9.42075 24.0113C9.29082 23.9999 9.16484 23.9608 9.05126 23.8965H9.02835C9.14005 23.9826 9.25749 24.0717 9.37492 24.1549L9.05985 24.0716C8.94566 24.0813 8.83361 24.1084 8.7276 24.1521C8.41539 24.287 8.11379 24.4454 7.82535 24.6259C6.84595 25.2252 6.04169 26.0731 5.49384 27.0839L3.89844 27.8679C4.20778 27.954 4.41974 27.9999 4.41974 27.9999L6.07528 27.1844C6.84222 25.7887 8.08009 24.7126 9.56683 24.1492Z" fill="#B07333"/>
<path d="M2.84887 12.6791C3.03474 12.4997 3.28122 12.3972 3.53916 12.3919C4.25809 12.3374 4.97129 12.6016 5.64726 12.8198C6.32323 13.038 6.9992 13.1931 7.65225 13.0208C7.40592 12.0646 7.32859 11.1026 8.18787 10.6202C8.41128 10.4938 8.66334 10.4278 8.89248 10.3129C9.01282 10.2612 9.11976 10.1825 9.20515 10.083C9.29053 9.98344 9.35209 9.86565 9.38513 9.73862C10.1327 9.9224 14.7757 10.7006 13.756 8.71634C13.5869 8.3956 13.3396 8.12296 13.0371 7.92379C13.0377 7.84704 13.0271 7.77061 13.0056 7.69694C12.9769 7.60218 12.954 7.50742 12.934 7.40978C12.934 7.43276 12.9082 7.226 12.9053 7.17719C12.9025 7.13608 12.9025 7.09482 12.9053 7.05371C12.9053 7.02787 12.9053 7.00489 12.9053 6.98192L12.954 6.96469H13.0571C13.0915 6.96469 13.2061 6.96469 13.2404 6.96469L13.4209 6.99341C13.5816 7.02544 13.7403 7.06667 13.8964 7.11689C14.2243 7.55096 14.4434 8.05772 14.5351 8.59446C14.6269 9.13119 14.5885 9.68217 14.4234 10.2009C14.6391 10.1969 14.8487 10.1283 15.0253 10.004C15.2019 9.87962 15.3374 9.70523 15.4144 9.50315C15.4887 9.29871 15.5206 9.08125 15.5083 8.86402C15.496 8.6468 15.4397 8.43436 15.3428 8.23966C15.1834 7.90546 14.9358 7.62143 14.6267 7.4184C14.8588 7.52177 15.0879 7.65387 15.3113 7.77447C15.3399 7.80032 15.3657 7.85488 15.3944 7.87498C15.5843 8.01568 15.766 8.16716 15.9386 8.32868C16.2039 8.77172 16.3611 9.27129 16.3974 9.78674C16.4338 10.3022 16.3482 10.819 16.1477 11.295C16.3684 11.2961 16.5848 11.2333 16.7707 11.1141C16.9567 10.9949 17.1044 10.8244 17.196 10.6231C17.2877 10.4256 17.3384 10.2115 17.3448 9.99373C17.3512 9.77599 17.3132 9.55924 17.2332 9.3567C17.1853 9.22761 17.1249 9.10354 17.0528 8.98627C17.3392 9.19877 17.6514 9.42275 17.9378 9.63811C18.1041 10.1376 18.1529 10.669 18.0804 11.1905C18.0078 11.7121 17.8159 12.2098 17.5197 12.6446C17.7257 12.7051 17.945 12.7021 18.1493 12.636C18.3536 12.57 18.5334 12.4439 18.6654 12.2742C18.7935 12.0983 18.8849 11.8982 18.9341 11.6861C18.9833 11.4739 18.9893 11.254 18.9518 11.0394C18.9079 10.7405 18.7984 10.4551 18.631 10.2038C18.8052 10.3469 18.9698 10.5013 19.1236 10.6661C19.3814 10.9533 19.7624 11.3553 20.1491 11.7602C20.1892 11.8262 20.2293 11.8894 20.2636 11.9583V11.9756C20.2636 12.0014 20.3009 12.0588 20.3095 12.0847C20.3438 12.168 20.4011 12.4982 20.3582 12.2053C20.3593 12.3151 20.3849 12.4233 20.4332 12.5219C20.4814 12.6205 20.5511 12.7069 20.6371 12.775C20.7231 12.843 20.8232 12.8909 20.9301 12.915C21.037 12.9392 21.1479 12.939 21.2547 12.9146L21.5411 13.2017L21.6872 13.308C21.0055 16.6591 22.7727 19.8724 24.0903 22.8789C24.121 22.9732 24.1698 23.0604 24.2341 23.1358C24.2984 23.2111 24.3769 23.273 24.4651 23.318C24.5533 23.3629 24.6494 23.39 24.748 23.3976C24.8466 23.4053 24.9458 23.3935 25.0398 23.3627C25.1338 23.332 25.2209 23.283 25.2961 23.2185C25.3712 23.1541 25.4329 23.0754 25.4778 22.987C25.5226 22.8986 25.5496 22.8022 25.5573 22.7034C25.5649 22.6045 25.5531 22.5051 25.5224 22.4108C24.1991 19.3928 22.2514 16.1192 23.4029 12.725C23.4265 12.6519 23.4353 12.5748 23.4287 12.4982C23.4757 12.4264 23.506 12.345 23.5174 12.2598C23.6134 11.2098 23.6335 10.1541 23.5776 9.10113C23.567 8.14988 23.8177 7.21404 24.3023 6.39612C24.5658 5.92806 24.792 5.40831 25.0212 4.88281C24.5846 5.27132 24.021 5.48587 23.4372 5.48584C22.578 5.43128 21.7416 6.04292 21.5755 6.72348C21.498 7.20179 21.5892 7.69221 21.8333 8.11045L21.796 8.26551C21.5515 8.97816 21.5678 9.75476 21.8418 10.4565C22.2915 11.7143 22.724 11.8923 22.7613 12.2082C22.7985 12.524 22.3431 13.4515 22.3431 13.4515L22.134 13.3051C22.134 13.3051 20.4154 11.5592 19.6965 10.758C18.9776 9.95686 16.2938 8.17362 15.9529 7.90369C15.6121 7.63377 15.297 7.11401 14.2573 6.22957C13.2175 5.34513 12.6962 5.83043 12.4728 5.96826C12.2494 6.1061 12.2838 6.7321 12.2838 6.7321C12.2838 6.7321 12.3726 7.47009 12.2523 7.68545C12.132 7.90082 11.4789 8.0042 11.4789 8.0042C11.4789 8.0042 10.8631 7.53901 9.22187 7.11976C7.58064 6.70051 5.14888 9.2562 4.02895 9.93963C3.60486 10.1698 3.25748 10.5197 3.02988 10.9459C2.80229 11.3721 2.70449 11.8559 2.74862 12.3374C2.76776 12.455 2.80143 12.5698 2.84887 12.6791Z" fill="#B07333"/>
<path d="M42.3757 2.00348C42.6105 2.39976 42.2697 2.86495 43.1777 2.86495C43.4493 2.86052 43.7147 2.7821 43.9453 2.63809C43.9708 2.62321 43.9977 2.61071 44.0255 2.60076H44.0627H44.0799C44.2951 2.52118 44.5279 2.50159 44.7533 2.54407C44.9788 2.58654 45.1885 2.6895 45.3602 2.84198C45.9486 3.3797 46.3067 4.12463 46.3599 4.92098C46.5403 6.98851 45.3774 8.92107 45.3774 8.92107L44.9764 9.67629L44.9621 9.70213L44.7874 9.817C44.6986 9.8773 44.5869 9.96057 44.4695 10.0553C44.211 10.2479 43.9889 10.4852 43.8135 10.756C43.7699 10.8297 43.7362 10.9089 43.7133 10.9915C43.6861 11.1081 43.6736 11.2278 43.6761 11.3475C43.6761 11.9218 44.0312 12.5909 44.922 13.0217C45.6188 13.3264 46.2269 13.8036 46.6893 14.4086C46.8038 14.6039 48.932 15.5056 49.058 16.7489C49.184 17.9923 49.1583 19.1381 46.4974 19.7066C46.6408 19.7023 46.7804 19.7537 46.8869 19.8502C49.7512 19.2989 49.7655 18.0928 49.6395 16.8494C49.5134 15.6061 47.3853 14.7044 47.2707 14.512C46.8084 13.907 46.2003 13.4297 45.5035 13.125C44.4179 12.5995 44.1401 11.718 44.2947 11.0948C44.4494 10.4717 45.5436 9.80551 45.5436 9.80551L45.9589 9.02445C45.9589 9.02445 47.1246 7.09188 46.9442 5.02436C46.7637 2.95684 45.0967 2.1528 43.5071 1.74791C42.7982 1.56359 42.0682 1.4738 41.3359 1.48085C41.777 1.56413 42.2009 1.70484 42.3757 2.00348Z" fill="#B07333"/>
<path d="M1.91038 26.4466C1.80313 26.4967 1.69202 26.538 1.57812 26.5701L1.67265 26.6189L1.77576 26.906C1.97237 27.11 2.21083 27.2687 2.47464 27.3712C2.8509 27.3353 3.20071 27.1615 3.45709 26.8831C3.78042 26.5092 3.97171 26.0389 4.0013 25.5449L1.91038 26.4466Z" fill="#B07333"/>
<path d="M51.9663 32.6104C52.146 32.638 52.3297 32.5997 52.4836 32.5026C52.6375 32.4054 52.7513 32.256 52.8042 32.0815C52.8571 31.9071 52.8455 31.7194 52.7716 31.5528C52.6976 31.3863 52.5663 31.252 52.4016 31.1746C52.4907 31.0819 52.559 30.9713 52.6021 30.8501L52.6938 30.8961C52.6938 30.8961 52.7711 30.8616 52.8886 30.8185C52.1095 30.4653 50.3279 29.7159 49.2194 29.6872C47.7701 29.647 47.1085 28.8257 47.1085 28.8257C46.7976 28.5799 46.5245 28.2897 46.2979 27.9642C46.0487 27.5421 42.3137 25.9283 42.1103 25.8766C41.907 25.8249 41.8755 25.6239 41.8382 24.3461C41.801 23.0682 42.4884 21.7071 42.4884 21.7071C44.4275 20.1478 45.6047 19.7602 46.2463 19.7228C46 19.5592 44.797 19.2777 41.907 21.6037C41.907 21.6037 41.2195 22.9706 41.2568 24.2455C41.294 25.5205 41.3255 25.7215 41.5289 25.7732C41.6234 25.7962 42.4798 26.158 43.3935 26.5801C43.3584 26.588 43.3239 26.5986 43.2904 26.6117C42.2134 27.0712 41.0591 27.433 40.0652 28.0733C39.0713 28.7137 38.3725 29.7733 37.8168 30.8415C37.7309 30.9449 37.6449 31.0425 37.5676 31.1287L37.4215 31.3038C37.2153 31.3957 37.0119 31.4915 36.8114 31.591C35.9521 32.039 35.1215 32.7396 34.8752 33.7016C33.8211 34.6033 33.0907 35.8467 32.3546 37.0441C32.0337 37.4207 31.7649 37.8389 31.5555 38.2875C31.4826 38.4376 31.4594 38.6071 31.4893 38.7714C31.5191 38.9356 31.6005 39.086 31.7216 39.2006C31.7943 39.267 31.8795 39.3182 31.9722 39.3511C32.0648 39.3841 32.1631 39.3981 32.2613 39.3925C32.3594 39.3869 32.4555 39.3617 32.5438 39.3184C32.6322 39.2751 32.711 39.2146 32.7757 39.1403C32.8129 39.0886 32.8473 39.0341 32.8845 38.9795C32.9332 38.902 32.9848 38.8273 33.0363 38.7498C33.1307 38.8424 33.2468 38.9096 33.374 38.9453C33.5012 38.9809 33.6353 38.9838 33.7638 38.9537C37.5619 38.0922 41.3398 37.1044 44.7283 35.0484C47.0111 33.6585 49.3312 32.3548 51.9663 32.6104ZM45.3785 28.3318C44.8858 29.0468 44.0981 29.4804 43.3477 29.9111C40.2459 31.6754 37.3112 33.7198 34.5802 36.0189C37.5069 32.6166 41.2147 29.9785 45.3842 28.3318H45.3785ZM48.0995 31.2809C47.9235 31.4914 47.6908 31.6469 47.4293 31.7288L36.0982 36.4841C37.5304 34.9622 39.4637 34.0979 41.357 33.2737C43.5482 32.3175 45.7422 31.3584 47.9907 30.5572C48.0463 30.5966 48.0936 30.6468 48.1296 30.7047C48.1656 30.7627 48.1897 30.8273 48.2003 30.8948C48.211 30.9623 48.2081 31.0312 48.1918 31.0975C48.1754 31.1638 48.146 31.2262 48.1052 31.2809H48.0995Z" fill="#B07333"/>
<path d="M25.448 4.05647C25.869 3.17203 26.3617 2.33354 27.135 1.77933C27.7594 1.32562 28.633 1.20501 29.3806 1.17343C30.244 1.15275 31.1073 1.21623 31.9584 1.36295C33.8088 1.63288 35.682 2.02054 37.5638 1.75061C38.1526 1.66675 38.7294 1.5135 39.2824 1.29403C39.0029 1.77646 38.7541 2.27616 38.5377 2.79012C38.4202 3.05717 38.3114 3.3271 38.2111 3.60277C38.3925 3.83618 38.493 4.12247 38.4976 4.41829C38.5541 4.36951 38.6222 4.33592 38.6952 4.32066C38.9599 4.26938 39.2323 4.27325 39.4954 4.33204C39.7585 4.39082 40.0068 4.50327 40.2247 4.66237C39.8008 5.34293 39.2251 4.86051 38.721 4.80021C38.6434 4.79162 38.5693 4.76292 38.5062 4.71693C38.5014 5.25229 38.5474 5.7869 38.6437 6.31352L38.7496 7.27549L38.6035 7.8699L38.7783 8.36381C38.9698 8.5915 39.0717 8.88156 39.0647 9.17934V9.20231C39.0647 9.23964 39.0647 9.27984 39.0647 9.32004C39.6968 9.47629 40.3422 9.57243 40.9923 9.6072C41.3241 9.64311 41.6596 9.60311 41.9736 9.4902C42.2877 9.37729 42.5721 9.19442 42.8054 8.95536C43.2981 8.38104 43.1978 7.64305 42.9515 6.98259C43.219 6.74271 43.4337 6.44946 43.5816 6.12162C43.7296 5.79378 43.8077 5.43858 43.8108 5.07875C43.805 4.65314 43.7073 4.23384 43.5244 3.84972C43.3067 3.47929 42.5247 3.14619 42.1925 2.87913C41.8717 2.58789 41.4938 2.36697 41.0829 2.2305C40.6721 2.09403 40.2374 2.04501 39.8065 2.08658C39.7578 2.09078 39.7088 2.08143 39.665 2.05956C39.6212 2.03769 39.5843 2.00416 39.5582 1.96263C39.5322 1.92109 39.5181 1.87317 39.5174 1.82412C39.5168 1.77507 39.5296 1.72679 39.5545 1.68457C39.6173 1.558 39.7017 1.44335 39.8037 1.34572C39.5404 1.27937 39.282 1.19494 39.0303 1.09302C38.2398 0.765665 36.0314 1.17343 34.3444 1.02985C32.6573 0.886271 31.3684 0.188483 29.8274 0.0219325C28.2865 -0.144618 26.7025 0.665162 25.9062 1.5094C25.11 2.35364 25.3563 3.16629 25.3563 3.16629C25.4095 3.46024 25.4401 3.75784 25.448 4.05647ZM42.9859 5.41759C43.1005 5.50374 43.2208 5.65019 43.152 5.77941C43.0833 5.90863 42.8885 5.88566 42.751 5.8311C42.2068 5.62434 41.2788 5.60712 41.2702 4.92369C41.8813 4.87226 42.49 5.04807 42.9802 5.41759H42.9859ZM40.5169 5.28263C40.5651 5.31682 40.5996 5.36706 40.6143 5.42438C40.6289 5.4817 40.6229 5.54239 40.5971 5.59563C40.5541 5.70475 40.2849 6.13548 40.2419 6.2446C40.1273 6.53176 40.8749 6.89932 40.6887 7.14627C40.6257 7.23242 40.0471 7.30995 39.9469 7.35015C39.7894 7.41046 39.7092 7.08884 39.5402 7.08597C39.4581 7.08656 39.3769 7.0689 39.3024 7.03428C39.2646 7.01644 39.2315 6.99003 39.2057 6.95713C39.1798 6.92424 39.162 6.88577 39.1535 6.84476C39.1525 6.78403 39.1642 6.72377 39.1879 6.66787C39.2115 6.61198 39.2467 6.56169 39.291 6.52027L40.1674 5.44918C40.2097 5.39336 40.2599 5.34403 40.3164 5.30273C40.3447 5.2837 40.3773 5.27192 40.4113 5.26841C40.4452 5.26491 40.4795 5.26979 40.5112 5.28263H40.5169Z" fill="#B07333"/>
<path d="M4.09675 24.8115C4.1078 24.6794 4.16257 24.5548 4.25235 24.4575C4.34213 24.3603 4.46177 24.2958 4.59226 24.2745C5.16512 24.1884 5.75229 24.4238 6.31083 24.4583H6.34233C6.31257 24.424 6.2884 24.3853 6.27073 24.3434C6.22819 24.2182 6.22316 24.0832 6.25624 23.9551C6.28933 23.8271 6.35908 23.7115 6.4569 23.6227C6.65345 23.4492 6.88356 23.3182 7.13287 23.2379C7.3113 23.1597 7.49759 23.101 7.68854 23.0627C9.66458 20.2302 11.2603 17.1494 12.4346 13.8996C11.99 14.1334 11.6265 14.4968 11.392 14.942C11.0014 14.8926 10.6065 14.8878 10.2148 14.9276C10.0287 14.942 9.84247 14.9621 9.66202 14.9678C9.14932 14.6806 8.66812 14.3533 8.16973 14.0489C8.09472 14.0027 8.01238 13.9697 7.92627 13.9513C7.86899 13.7704 7.80884 13.5837 7.75442 13.377H7.73723C6.3017 13.7298 4.806 13.7592 3.35776 13.4631C3.41978 13.5293 3.48578 13.5916 3.5554 13.6498C3.5554 13.6498 4.53211 14.1264 4.79276 13.9656C5.05341 13.8048 6.03586 13.8192 6.35666 14.3648C6.67745 14.9104 5.96138 15.8005 5.68355 16.2772C5.40572 16.7539 4.05092 18.1811 4.05092 18.1811C2.58955 19.4344 1.30764 20.8838 0.241435 22.4884C-0.0679061 22.8761 -0.0765 23.5078 0.195606 23.749C0.462487 24.0871 0.682192 24.46 0.848659 24.8575C0.866364 25.1443 0.866364 25.432 0.848659 25.7189C0.841717 25.8079 0.858523 25.8971 0.897351 25.9774C0.913536 25.9563 0.932862 25.9379 0.95464 25.9228C2.04395 25.9325 3.10464 25.5733 3.96499 24.9034C4.00716 24.8703 4.05115 24.8396 4.09675 24.8115ZM6.56861 16.685C6.67745 16.4754 7.02403 16.6333 7.19875 16.4754C8.27571 15.5048 8.37883 16.2112 8.79129 15.7747C8.84703 15.7778 8.90154 15.7924 8.95137 15.8176C9.0012 15.8428 9.04527 15.8782 9.0808 15.9213C9.11633 15.9645 9.14254 16.0146 9.15778 16.0684C9.17303 16.1223 9.17697 16.1787 9.16937 16.2342C9.14902 16.3467 9.10602 16.4538 9.04299 16.5491C8.97995 16.6444 8.89821 16.7258 8.80274 16.7884C8.29004 17.176 7.62266 17.2765 6.98966 17.3627C6.85575 17.2992 6.73595 17.2093 6.63735 17.0985C6.58935 17.0424 6.55756 16.9742 6.54544 16.9014C6.53333 16.8285 6.54134 16.7536 6.56861 16.685Z" fill="#B07333"/>
<path d="M8.80263 16.7891C8.8981 16.7265 8.97985 16.6451 9.04288 16.5498C9.10592 16.4545 9.14892 16.3473 9.16926 16.2348C9.17687 16.1794 9.17292 16.123 9.15768 16.0691C9.14243 16.0153 9.11622 15.9652 9.08069 15.922C9.04516 15.8788 9.00109 15.8435 8.95126 15.8183C8.90143 15.793 8.84693 15.7784 8.79118 15.7754C8.37873 16.2119 8.27561 15.5055 7.19864 16.4761C7.02392 16.634 6.67735 16.4761 6.5685 16.6857C6.54067 16.7547 6.53236 16.8301 6.54448 16.9036C6.55661 16.977 6.58871 17.0457 6.63725 17.1021C6.73584 17.2129 6.85565 17.3027 6.98955 17.3662C7.62256 17.2772 8.28993 17.1767 8.80263 16.7891Z" fill="#58442D"/>
<path d="M34.8497 12.6549C34.9353 12.58 35.0071 12.4905 35.0617 12.3907C35.5629 11.6728 35.8207 10.507 35.9038 9.85224C35.9038 9.81203 35.9038 9.76609 35.921 9.72876C35.6607 9.61434 35.3803 9.55285 35.0961 9.54785C35.0961 9.59954 35.0961 9.64836 35.1104 9.69717C35.1591 10.2715 35.1849 10.7395 34.6693 12.3591C34.6477 12.4248 34.6428 12.4949 34.655 12.563C34.6555 12.5854 34.6622 12.6072 34.6744 12.626C34.6866 12.6448 34.7038 12.6598 34.724 12.6693C34.7442 12.6789 34.7667 12.6826 34.7889 12.68C34.8111 12.6775 34.8322 12.6688 34.8497 12.6549Z" fill="#58442D"/>
<path d="M33.5418 12.1317C33.5443 12.1535 33.5524 12.1742 33.5653 12.1919C33.5782 12.2096 33.5954 12.2236 33.6154 12.2326C33.6353 12.2416 33.6572 12.2452 33.679 12.2431C33.7007 12.2411 33.7216 12.2334 33.7394 12.2208C33.8223 12.1526 33.8922 12.0699 33.9457 11.9767C34.4355 11.3162 34.6703 10.2279 34.7419 9.622C34.7419 9.58467 34.7419 9.54447 34.7563 9.51001C34.4947 9.39956 34.215 9.33824 33.9313 9.3291C33.9313 9.36643 33.9313 9.40376 33.9457 9.44109C34.0058 10.0154 34.0459 10.4174 33.5533 11.9422C33.534 12.0035 33.53 12.0686 33.5418 12.1317Z" fill="#58442D"/>
<path d="M37.5467 1.75189C35.6706 2.02182 33.7917 1.63416 31.9414 1.36423C31.0902 1.21751 30.2269 1.15404 29.3635 1.17471C28.6159 1.20917 27.7423 1.3269 27.1179 1.78061C26.3446 2.33769 25.8519 3.17332 25.4309 4.05776C25.2963 4.34491 25.5941 4.79862 25.0471 4.91922C24.5 5.03983 24.5916 5.96447 24.3281 6.43254C23.8435 7.25045 23.5928 8.18629 23.6035 9.13755C23.6594 10.1905 23.6393 11.2462 23.5433 12.2963C23.5319 12.3814 23.5015 12.4628 23.4545 12.5346C23.4612 12.6112 23.4524 12.6883 23.4288 12.7615C22.283 16.1556 24.225 19.4292 25.5483 22.4472C25.579 22.5415 25.5908 22.6409 25.5831 22.7398C25.5755 22.8386 25.5485 22.935 25.5036 23.0234C25.4588 23.1118 25.3971 23.1905 25.3219 23.2549C25.2468 23.3194 25.1597 23.3684 25.0657 23.3991C24.9716 23.4299 24.8725 23.4417 24.7739 23.4341C24.6753 23.4264 24.5791 23.3993 24.491 23.3544C24.4028 23.3094 24.3243 23.2475 24.26 23.1722C24.1957 23.0969 24.1468 23.0096 24.1162 22.9153C22.7986 19.9088 21.0314 16.6955 21.7131 13.3444L21.567 13.2381L21.2806 12.951C21.1738 12.9754 21.0628 12.9756 20.956 12.9514C20.8491 12.9273 20.749 12.8794 20.663 12.8114C20.577 12.7434 20.5073 12.6569 20.459 12.5583C20.4108 12.4597 20.3851 12.3515 20.384 12.2417C20.427 12.5289 20.3697 12.2044 20.3353 12.1211C20.3353 12.0953 20.301 12.0378 20.2895 12.012V11.9947C20.2551 11.9258 20.215 11.8627 20.1749 11.7966C19.7883 11.3917 19.4073 10.9868 19.1495 10.7025C18.9957 10.5377 18.8311 10.3833 18.6569 10.2402C18.8243 10.4915 18.9338 10.7769 18.9777 11.0758C19.0152 11.2904 19.0092 11.5103 18.96 11.7225C18.9108 11.9347 18.8194 12.1347 18.6912 12.3106C18.5593 12.4803 18.3795 12.6064 18.1752 12.6724C17.9709 12.7385 17.7515 12.7415 17.5455 12.6811C17.8418 12.2462 18.0337 11.7485 18.1062 11.2269C18.1788 10.7054 18.13 10.1741 17.9637 9.67453C17.6773 9.45916 17.3737 9.23518 17.0787 9.02268C17.1502 9.14026 17.2106 9.26427 17.2591 9.39312C17.3391 9.59565 17.377 9.81241 17.3706 10.0301C17.3642 10.2479 17.3136 10.462 17.2219 10.6595C17.1303 10.8608 16.9826 11.0313 16.7966 11.1506C16.6107 11.2698 16.3943 11.3326 16.1736 11.3314C16.3741 10.8554 16.4597 10.3386 16.4233 9.82315C16.387 9.3077 16.2298 8.80813 15.9645 8.3651C15.7918 8.20357 15.6101 8.05209 15.4203 7.91139C15.3916 7.89129 15.3658 7.83673 15.3372 7.81088C15.1138 7.69028 14.8846 7.55819 14.6526 7.45481C14.9617 7.65784 15.2093 7.94188 15.3687 8.27608C15.4656 8.47077 15.5219 8.68321 15.5342 8.90043C15.5465 9.11766 15.5146 9.33512 15.4403 9.53957C15.3633 9.74164 15.2278 9.91603 15.0512 10.0404C14.8746 10.1647 14.665 10.2333 14.4493 10.2374C14.6144 9.71858 14.6527 9.16761 14.561 8.63087C14.4693 8.09414 14.2502 7.58737 13.9222 7.1533C13.7662 7.10308 13.6075 7.06186 13.4468 7.02982L13.2663 7.00111C13.2319 7.00111 13.1174 7.00111 13.083 7.00111H12.9799L12.9312 7.01834C12.9312 7.04131 12.9312 7.06428 12.9312 7.09013C12.9312 7.11597 12.9312 7.1734 12.9312 7.2136C12.9312 7.2538 12.9684 7.46917 12.9598 7.4462C12.9799 7.54096 13.0028 7.63572 13.0315 7.73335C13.0528 7.80706 13.0634 7.88346 13.063 7.96021C13.3654 8.15937 13.6128 8.43201 13.7819 8.75276C14.8016 10.737 10.1586 9.95881 9.41101 9.77503C9.37797 9.90207 9.31641 10.0199 9.23103 10.1194C9.14564 10.2189 9.0387 10.2976 8.91836 10.3493C8.68922 10.4642 8.43716 10.5303 8.21375 10.6566C7.35446 11.139 7.4318 12.0924 7.67813 13.0572C7.02507 13.2295 6.32333 13.0572 5.67314 12.8562C5.02295 12.6552 4.28397 12.3738 3.56504 12.4284C3.3071 12.4336 3.06062 12.5361 2.87475 12.7155C2.78413 12.8083 2.73338 12.9331 2.73338 13.063C2.73338 13.1929 2.78413 13.3176 2.87475 13.4104C3.04087 13.4535 3.20987 13.488 3.37599 13.5224C4.82423 13.8186 6.31993 13.7891 7.75547 13.4363H7.77265C7.82707 13.6287 7.88722 13.8153 7.9445 14.0106C8.03061 14.029 8.11295 14.062 8.18797 14.1082C8.68635 14.4126 9.16755 14.7457 9.68025 15.0271C9.8607 15.0271 10.0469 15.0013 10.2302 14.9869C10.6228 14.9471 11.0187 14.9519 11.4103 15.0013C11.6447 14.5561 12.0082 14.1927 12.4529 13.9589C11.2677 17.1898 9.66534 20.2511 7.68672 23.0646C7.49784 23.1024 7.31349 23.1601 7.13678 23.2369C6.88747 23.3172 6.65736 23.4482 6.46081 23.6217C6.36299 23.7105 6.29323 23.8261 6.26015 23.9542C6.22707 24.0822 6.2321 24.2172 6.27464 24.3425C6.29232 24.3843 6.31648 24.4231 6.34624 24.4573H6.31474C5.74188 24.4229 5.15471 24.1874 4.59618 24.2735C4.46569 24.2948 4.34604 24.3593 4.25626 24.4566C4.16648 24.5539 4.11171 24.6784 4.10065 24.8105C4.05701 24.8388 4.01494 24.8695 3.97462 24.9024C3.11153 25.5811 2.04399 25.9457 0.947093 25.9362C0.925315 25.9513 0.905993 25.9697 0.889808 25.9907C0.861451 26.0442 0.844736 26.1031 0.840767 26.1635C0.836797 26.2239 0.845663 26.2845 0.86678 26.3412C0.887898 26.398 0.920786 26.4495 0.963268 26.4926C1.00575 26.5356 1.05686 26.5691 1.11322 26.5909C1.26407 26.6396 1.42638 26.6396 1.57723 26.5909C1.69064 26.5585 1.80166 26.5182 1.90949 26.4703L4.00041 25.5629C3.97082 26.0568 3.77953 26.5272 3.45619 26.901C3.19981 27.1794 2.85 27.3532 2.47375 27.3892C2.35571 27.4021 2.23662 27.4021 2.11858 27.3892C2.67857 27.6049 3.2528 27.7815 3.83714 27.9175L3.89729 27.886L5.49269 27.102C6.04054 26.0912 6.8448 25.2433 7.8242 24.644C8.11264 24.4635 8.41425 24.3051 8.72645 24.1702C8.83246 24.1265 8.94451 24.0994 9.0587 24.0898L9.37378 24.173C9.25634 24.0898 9.1389 24.0007 9.0272 23.9146H9.05011C9.16369 23.9789 9.28968 24.018 9.41961 24.0295L12.1464 24.4631C12.4689 24.4887 12.7777 24.6052 13.0372 24.799C13.0976 24.8551 13.148 24.9211 13.1861 24.9943C13.2606 25.135 13.295 25.3159 13.4324 25.3877C13.4951 25.4122 13.5635 25.4182 13.6295 25.405C13.6955 25.3917 13.7563 25.3598 13.8048 25.313C13.8555 25.2756 13.9025 25.2332 13.9452 25.1867C14.3875 24.7106 14.726 24.1473 14.9391 23.5327C15.0483 23.2656 15.0867 22.9748 15.0508 22.6884C15.0316 22.5464 14.9711 22.4132 14.8769 22.3055C14.7826 22.1977 14.6588 22.1202 14.5209 22.0825C14.0053 22.8234 13.4239 23.5758 12.6018 23.9261C12.0075 24.1571 11.3603 24.2158 10.7343 24.0955C10.1799 23.9893 9.6363 23.8326 9.11026 23.6274C9.14177 22.2491 10.1815 21.0832 11.0236 19.9662C12.4123 18.1186 13.3891 15.9936 13.8879 13.7349C13.9065 13.7046 13.9276 13.6757 13.9509 13.6488C14.0836 13.5022 14.2685 13.4138 14.4656 13.4025C14.6627 13.3912 14.8564 13.458 15.0049 13.5885C15.2519 13.7633 15.4864 13.9552 15.7067 14.1628C17.0574 15.2643 18.2186 16.5807 19.1438 18.0595C19.4302 18.5477 20.3984 20.5463 20.2895 21.669C20.3137 21.6929 20.3358 21.7188 20.3554 21.7466C21.3898 23.0783 22.2835 24.5141 23.022 26.0309C23.4676 26.9376 23.7774 27.9052 23.9415 28.9025L14.6584 29.7812L14.5008 29.7984C14.1902 29.8077 13.8901 29.913 13.6415 30.0999C13.5607 30.1786 13.5039 30.2787 13.4781 30.3887C13.4522 30.4986 13.4582 30.6136 13.4955 30.7202C13.515 30.7765 13.5463 30.8279 13.5873 30.871C13.6283 30.9141 13.6781 30.9478 13.7332 30.97C13.849 31.0055 13.9706 31.0182 14.0912 31.0074L22.8616 30.7202C23.2271 30.7189 23.5916 30.6823 23.95 30.6111C23.95 30.6283 23.95 30.6484 23.95 30.6656C23.5319 33.3764 21.0256 34.5135 19.0206 35.9091C18.3218 37.1525 16.944 37.6608 15.4976 37.856C15.5292 37.9988 15.5172 38.1478 15.463 38.2835C15.4089 38.4193 15.3151 38.5355 15.194 38.617C14.0408 39.4015 12.9387 40.259 11.8943 41.1842C11.3906 41.6527 10.9125 42.1483 10.4622 42.6688C9.98387 43.2201 9.56854 43.8174 9.0988 44.3745C8.30254 45.3106 7.38025 46.1319 6.56966 47.0508C5.9653 47.7313 5.13752 48.7048 5.05446 49.5146C5.05446 49.5548 5.05446 49.595 5.05446 49.6323C5.05441 49.7122 5.04185 49.7917 5.01722 49.8678C5.61615 50.2512 6.27287 50.5353 6.96206 50.7091C7.02659 50.728 7.09517 50.728 7.1597 50.7091C7.56642 50.5655 7.70964 49.6553 7.70964 49.6553C8.01611 48.4119 12.2925 45.9969 12.2925 45.9969C12.2925 45.9969 15.4575 44.6013 16.8524 43.7628C18.2473 42.9243 20.934 40.6788 21.2777 40.7649C21.6214 40.8511 22.7385 40.7649 23.1566 40.874C23.5748 40.9832 24.6432 40.5869 25.2533 40.7505C25.3181 40.7652 25.3807 40.7884 25.4395 40.8195C25.5808 40.8941 25.704 40.999 25.8004 41.1267C25.9395 41.1741 26.0737 41.2347 26.2014 41.3076C26.2014 41.2244 26.2157 41.1382 26.2185 41.0549C26.3102 39.2257 26.2185 37.3937 26.7456 35.599C27.264 33.876 27.7882 32.1273 28.4384 30.4302C29.7359 27.0618 31.6435 23.6332 35.0262 22.1026C35.1015 22.0693 35.183 22.0521 35.2654 22.0521C35.3477 22.0521 35.4292 22.0693 35.5045 22.1026C35.8396 20.6669 36.2779 19.2311 36.5299 17.7695C36.6062 17.3345 36.656 16.8953 36.6789 16.4543V16.417C36.4825 15.5194 35.9876 14.7154 35.2754 14.1369C34.5848 13.6331 33.8231 13.2353 33.0155 12.9567C31.2969 12.2934 29.4151 11.7535 28.1462 10.3063C28.0019 10.1679 27.9154 9.97967 27.9042 9.77975C27.893 9.57983 27.958 9.38313 28.0861 9.22944L28.1491 9.16913C28.1378 9.1354 28.1292 9.10084 28.1233 9.06576C27.9056 8.99397 27.6908 8.92218 27.476 8.84178C27.0922 8.6982 26.9833 8.1526 27.1523 7.81663C27.2098 7.69443 27.3018 7.59179 27.4168 7.52137C27.5318 7.45095 27.6649 7.41584 27.7996 7.42035C27.6765 7.01259 27.433 6.15687 27.4903 5.9214C27.5958 5.61892 27.7361 5.32981 27.9085 5.05993C27.9085 5.05993 28.3639 4.04627 28.3066 3.62415C28.2943 3.41924 28.353 3.21635 28.4727 3.04984C28.5409 2.9339 28.6352 2.83558 28.7481 2.76277C28.8611 2.68997 28.9894 2.64469 29.1229 2.63059C29.5726 2.63059 32.7462 3.17044 33.4394 3.2049C34.1325 3.23936 36.8106 3.01825 36.8106 3.01825C36.9485 3.03694 37.0828 3.07664 37.2088 3.13599L37.3233 3.19629C37.4949 3.19569 37.6638 3.23887 37.8141 3.32176C37.9644 3.40465 38.0912 3.52452 38.1826 3.6701C38.1923 3.63602 38.2038 3.60248 38.217 3.56959C38.3172 3.28244 38.4261 3.02399 38.5435 2.75694C38.76 2.24298 39.0087 1.74328 39.2882 1.26086C38.7299 1.49523 38.1451 1.66014 37.5467 1.75189ZM27.1638 12.6408C28.8823 13.0314 31.9929 14.4155 34.5507 16.7558L35.072 17.5455L34.7856 18.6711L34.1583 19.501C33.987 19.8355 33.8331 20.1786 33.6972 20.529C33.6513 20.7071 31.6091 22.5133 30.7498 22.6942C30.6799 22.7081 30.6078 22.7081 30.5379 22.6942L30.008 22.5592C29.6742 22.4704 29.3878 22.2552 29.2089 21.9591L28.9482 21.5369C28.8024 21.3022 28.5747 21.1303 28.3095 21.0545H28.2493L27.2239 18.9583C27.2239 18.9583 25.4824 15.6244 25.3306 15.3688C25.1788 15.1133 25.0442 13.2065 26.0095 12.6121C26.1641 12.4887 26.5909 12.5059 27.1638 12.6408Z" fill="#58442D"/>
<path d="M71.0722 59.394C70.6167 58.6186 69.0528 53.0363 68.6662 52.3816C68.564 52.1714 68.4945 51.9467 68.4599 51.7154C68.3689 51.754 68.2706 51.7723 68.1719 51.769C68.0731 51.7658 67.9762 51.741 67.888 51.6965C67.7997 51.652 67.7221 51.5887 67.6607 51.5112C67.5992 51.4336 67.5552 51.3436 67.5319 51.2473C67.0307 49.4871 66.9591 47.6579 66.8015 45.8402C66.8015 45.7368 66.8216 45.6162 66.8216 45.5214C66.8216 45.5214 66.7815 45.5214 66.7815 45.5042C66.4374 45.8793 65.9671 46.1135 65.461 46.1618C65.2004 46.1819 64.8567 46.0871 64.8223 45.823C64.7879 45.5588 65.1488 45.3664 65.4295 45.2716C65.8715 45.1264 66.2825 44.8995 66.6411 44.6025C66.601 44.2637 66.5437 43.9249 66.4807 43.5918C66.31 43.8031 66.099 43.9782 65.8599 44.1069C65.6209 44.2356 65.3587 44.3153 65.0887 44.3412C64.8252 44.3613 64.4872 44.2637 64.4557 43.9995C64.4242 43.7353 64.7851 43.5401 65.0658 43.4482C65.5143 43.2993 65.9311 43.0675 66.2945 42.7647C66.2229 42.4776 66.1399 42.1904 66.0425 41.9176C65.876 42.2007 65.6458 42.4408 65.3703 42.6188C65.0948 42.7968 64.7816 42.9077 64.4557 42.9428C64.1922 42.9629 63.8571 42.8653 63.8255 42.6011C63.794 42.3369 64.1549 42.1416 64.4385 42.0497C64.9354 41.884 65.3927 41.6171 65.7818 41.2658L65.7446 41.1796C64.5473 38.5952 62.2387 36.7488 60.9097 34.2391C60.8311 34.1092 60.7895 33.9603 60.7895 33.8083C60.7895 33.6564 60.8311 33.5075 60.9097 33.3776L60.7608 33.2312C58.9821 31.5082 55.2929 30.7099 54.004 30.4515L53.5629 30.3625C53.2371 30.3477 52.9124 30.4097 52.6148 30.5434C52.4974 30.5865 52.42 30.6209 52.42 30.6209L52.3284 30.575C52.2852 30.6962 52.2169 30.8068 52.1279 30.8995C52.2925 30.9768 52.4239 31.1111 52.4978 31.2777C52.5717 31.4442 52.5833 31.6319 52.5304 31.8064C52.4775 31.9808 52.3637 32.1303 52.2098 32.2274C52.0559 32.3245 51.8723 32.3628 51.6925 32.3352C49.0574 32.0797 46.7373 33.3834 44.4574 34.7646C41.0689 36.8206 37.2967 37.8056 33.4929 38.6699C33.3643 38.7 33.2303 38.6971 33.1031 38.6615C32.9759 38.6258 32.8598 38.5586 32.7654 38.466C32.7138 38.5436 32.6623 38.6182 32.6107 38.6986C32.5592 38.779 32.5391 38.8077 32.5019 38.8594C32.4372 38.9337 32.3584 38.9942 32.2701 39.0375C32.1817 39.0808 32.0857 39.106 31.9875 39.1116C31.8893 39.1172 31.7911 39.1032 31.6984 39.0702C31.6057 39.0373 31.5205 38.9861 31.4478 38.9197C31.3268 38.8051 31.2454 38.6547 31.2155 38.4904C31.1856 38.3262 31.2088 38.1567 31.2817 38.0066C31.4912 37.558 31.76 37.1398 32.0808 36.7632C32.817 35.5657 33.5474 34.3224 34.6014 33.4207C34.8477 32.4616 35.6726 31.7581 36.5377 31.3101C36.7381 31.2067 36.9415 31.111 37.1477 31.0229L37.2938 30.8478C37.3711 30.753 37.4571 30.6554 37.543 30.5606C38.0987 29.4924 38.7746 28.4529 39.7915 27.7924C40.8083 27.132 41.9397 26.7903 43.0166 26.3308C43.0501 26.3177 43.0846 26.3071 43.1197 26.2992C42.206 25.8771 41.3496 25.5153 41.2551 25.4923C41.0517 25.4406 41.0202 25.2396 40.983 23.9646C40.9458 22.6897 41.6332 21.3228 41.6332 21.3228C44.5232 18.9968 45.7262 19.2783 45.9726 19.4419C45.9897 19.4541 46.0052 19.4686 46.0184 19.485L46.2074 19.4448C48.8683 18.8705 48.8912 17.7018 48.7681 16.4871C48.6449 15.2724 46.5139 14.342 46.3993 14.1468C45.937 13.5418 45.3289 13.0645 44.6321 12.7598C43.7413 12.3291 43.3947 11.6571 43.3861 11.0857C43.3837 10.9659 43.3962 10.8463 43.4234 10.7296C43.4462 10.647 43.4799 10.5678 43.5236 10.4942C43.6989 10.2233 43.921 9.98607 44.1795 9.79349C44.297 9.69873 44.4087 9.61545 44.5003 9.55515L44.675 9.44029L44.6894 9.41444L45.0904 8.65922C45.0904 8.65922 46.2676 6.71518 46.0957 4.6534C46.047 3.85667 45.6929 3.10967 45.1075 2.56864C44.9364 2.41614 44.7271 2.31313 44.5021 2.27065C44.2771 2.22816 44.0448 2.24779 43.8301 2.32743H43.81H43.7699C43.7421 2.33738 43.7153 2.34988 43.6897 2.36476C43.4591 2.50877 43.1938 2.58719 42.9221 2.59162C42.0141 2.59162 42.3493 2.11494 42.1201 1.73015C41.9454 1.44299 41.5215 1.2908 41.0575 1.20753C40.5935 1.12425 40.0722 1.08979 39.7313 1.00364C39.6977 0.997191 39.6631 0.999333 39.6305 1.00987C39.598 1.02041 39.5686 1.03901 39.5451 1.06395C39.4431 1.16157 39.3588 1.27622 39.2959 1.40279C39.271 1.44501 39.2582 1.4933 39.2589 1.54235C39.2595 1.5914 39.2737 1.63932 39.2997 1.68085C39.3257 1.72238 39.3627 1.75592 39.4065 1.77779C39.4503 1.79965 39.4993 1.809 39.548 1.80481C39.9788 1.76324 40.4135 1.81225 40.8244 1.94872C41.2352 2.08519 41.6131 2.30612 41.9339 2.59736C42.2662 2.86442 43.0481 3.19752 43.2658 3.56795C43.4487 3.95207 43.5464 4.37137 43.5522 4.79698C43.5491 5.1568 43.4711 5.51201 43.3231 5.83985C43.1751 6.16769 42.9605 6.46094 42.693 6.70082C42.9393 7.36128 43.0395 8.09927 42.5469 8.67358C42.3135 8.91264 42.0291 9.09551 41.7151 9.20842C41.401 9.32133 41.0655 9.36134 40.7338 9.32542C40.0837 9.29066 39.4383 9.19451 38.8061 9.03827C38.782 9.25032 38.6952 9.45031 38.557 9.61258L38.6228 9.67863C38.8459 9.92 39.0383 10.1881 39.1957 10.4769C39.3286 10.6852 39.419 10.9177 39.4618 11.1612C39.5046 11.4047 39.4988 11.6542 39.4449 11.8955C39.3476 12.1916 39.1653 12.4524 38.9207 12.6449C39.147 13.4289 39.0152 14.4282 38.9207 15.1978C39.0494 16.0528 39.0849 16.9194 39.0267 17.7822C38.9202 19.6638 38.0907 21.431 36.7124 22.7126C36.7178 22.8013 36.7045 22.89 36.6734 22.9731C36.6423 23.0563 36.5941 23.1319 36.5319 23.1951C36.9902 23.6717 37.3139 24.3121 37.079 24.9898C36.9826 25.2622 36.8337 25.513 36.6408 25.7278C36.659 25.8368 36.6531 25.9486 36.6236 26.0551C36.3146 27.1863 35.6458 28.1854 34.7188 28.9009C33.9226 29.5498 33.0175 30.0351 32.1897 30.6381C30.6058 31.7868 29.8009 33.8371 29.4944 35.7524C29.4822 35.8462 29.4504 35.9364 29.4011 36.0171C29.3517 36.0978 29.2859 36.1671 29.208 36.2205C29.208 36.3554 29.208 36.4875 29.208 36.6225C29.2879 36.6872 29.353 36.7684 29.3989 36.8606C29.4449 36.9527 29.4706 37.0536 29.4744 37.1566C29.5164 37.7175 29.524 38.2804 29.4973 38.8422C29.9819 39.6073 30.2089 40.5082 30.1446 41.4122C30.0329 42.1308 29.7671 42.8166 29.3655 43.4223C28.8499 44.2838 28.3344 45.0907 28.0737 46.0814C27.8131 47.0721 27.6011 48.1403 27.1543 49.1023C27.1407 49.1319 27.1254 49.1607 27.1085 49.1884L27.0913 49.309C26.9395 50.2164 26.7189 51.144 26.1575 51.8934C26.1307 51.9284 26.1 51.9602 26.0659 51.9882C26.0453 52.0072 26.0233 52.0245 26 52.0399C26.0863 52.0529 26.1734 52.0605 26.2606 52.0629C26.6327 52.0527 26.9936 51.9336 27.2989 51.7203C27.6043 51.507 27.8408 51.2089 27.9792 50.8625C28.048 50.5897 29.0218 49.1051 29.0218 49.1051C29.4377 49.0079 29.8406 48.8614 30.2219 48.6687C30.6287 48.4217 30.6143 47.075 30.7003 46.7275C30.7862 46.38 31.3419 45.1137 31.3419 45.1137C31.3419 45.1137 32.5248 43.9306 32.6881 43.2701C32.8513 42.6097 32.6107 41.26 32.7368 40.7661C32.8628 40.2722 33.9283 40.5335 33.9283 40.5335L34.1517 40.5737C34.4381 40.6283 34.9508 40.7231 35.6096 40.8379C36.953 41.0734 38.8606 41.3864 40.4015 41.5673C40.6902 41.5993 40.977 41.6463 41.2608 41.708C43.1684 42.1273 43.684 43.0519 44.8039 43.8157C44.8211 43.7152 44.8354 43.6147 44.8526 43.5142L44.8784 43.3448C44.8559 42.9346 44.8809 42.5231 44.9529 42.1186C45.0293 41.686 45.1384 41.2597 45.2794 40.8437C45.2994 40.7346 45.3166 40.6254 45.3395 40.5192C45.4627 39.8702 45.6031 39.2212 45.7835 38.5895C45.9515 38.1136 46.0761 37.6234 46.1559 37.125C46.1713 36.7051 46.3231 36.3017 46.5884 35.9764C46.9864 35.6028 47.507 35.3883 48.052 35.3733C48.444 35.3803 48.8284 35.483 49.1718 35.6727C49.5153 35.8624 49.8073 36.1332 50.0226 36.4617C50.1401 36.4999 50.2541 36.5479 50.3635 36.6052C50.3745 36.5626 50.3898 36.5212 50.4093 36.4818C50.5005 36.3059 50.6569 36.1728 50.8448 36.111C51.0327 36.0493 51.2373 36.0638 51.4147 36.1515C51.9644 36.3827 52.4621 36.7225 52.8779 37.1508C53.2938 37.579 53.6193 38.0869 53.835 38.6441C54.2566 39.631 54.5074 40.6826 54.5768 41.754C54.6685 43.7899 55.3244 45.3061 56.7966 46.6586C57.527 47.3277 57.9137 48.0771 58.5324 48.8151C59.5177 49.9953 60.9069 50.9688 62.0497 51.9911C63.3615 53.1627 64.7077 54.3773 65.4868 55.9653C66.2201 57.4556 66.1771 58.8771 65.653 60.4019C65.4381 61.0279 65.4868 61.5505 65.3923 62.2052C65.2293 63.0665 64.9047 63.8889 64.4356 64.6288C64.2806 64.8886 64.153 65.1638 64.0547 65.4501C64.0089 65.7659 63.9831 66.0843 63.9774 66.4034C63.9849 66.5088 63.9691 66.6146 63.931 66.7131C63.893 66.8116 63.8336 66.9005 63.7572 66.9732C63.6808 67.046 63.5892 67.1009 63.4891 67.1339C63.389 67.167 63.2828 67.1774 63.1782 67.1644C63.1956 67.1786 63.211 67.195 63.224 67.2132C63.2941 67.283 63.3677 67.3492 63.4446 67.4113L63.5219 67.4659C63.6658 67.5344 63.8046 67.6131 63.9373 67.7014C64.0373 67.7636 64.1221 67.8474 64.1856 67.9468C64.249 68.0462 64.2895 68.1586 64.3039 68.2757C64.4586 68.3244 64.5914 68.4261 64.6791 68.5628V68.5772L65.0114 67.8047C64.8956 67.0668 64.9033 66.3147 65.0343 65.5793C65.2634 64.6489 66.9963 64.8442 66.9963 64.8442L67.3686 64.3187L67.6379 63.0667C67.6379 63.0667 67.953 61.786 69.0185 61.6653C70.084 61.5447 71.5304 60.1721 71.0722 59.394ZM43.9504 5.69577C44.1027 5.3961 44.2264 5.08267 44.3199 4.75965C44.3766 4.82475 44.4171 4.90244 44.438 4.98632C44.4589 5.07019 44.4597 5.15785 44.4402 5.24207C44.4087 5.41436 44.2511 7.19473 44.3514 7.39287C44.1893 7.34986 44.0446 7.25737 43.9374 7.12822C43.8301 6.99907 43.7656 6.83967 43.7527 6.6721C43.7284 6.33006 43.7967 5.98778 43.9504 5.68142V5.69577ZM63.2155 48.3528C63.0004 48.4807 62.7577 48.5545 62.508 48.5682C62.3364 48.581 62.164 48.5704 61.9953 48.5366C61.7395 48.2487 61.4196 48.0254 61.0615 47.8847C60.6032 47.767 59.025 47.0233 58.6956 46.449C58.3662 45.8746 57.4497 44.1086 57.6129 43.4482C57.7762 42.7877 57.633 39.5744 57.633 39.5744V38.2133L57.5012 36.611C57.5012 36.611 57.6616 35.5772 58.2746 35.6117C58.6698 35.6124 59.0638 35.6577 59.4489 35.7467C59.6448 35.7795 59.8226 35.8813 59.9502 36.0338C60.208 36.4732 61.6458 38.2076 61.6458 38.2076C61.9318 38.6371 62.1268 39.1209 62.2187 39.629C62.296 40.3096 62.0841 41.6592 62.4564 42.2909C62.8288 42.9227 62.783 44.0139 62.9978 44.3699C63.2126 44.726 62.9978 45.5645 62.9978 45.5645L63.5706 46.8251C63.5706 46.8251 63.7883 47.9967 63.2155 48.3528Z" fill="#58442D"/>
<path d="M45.3842 28.332C41.2168 29.9796 37.5111 32.6176 34.5859 36.0192C37.317 33.72 40.2517 31.6756 43.3535 29.9114C44.1039 29.4835 44.8916 29.047 45.3842 28.332Z" fill="#58442D"/>
<path d="M48.1068 31.2812C48.1478 31.2269 48.1776 31.1648 48.1944 31.0987C48.2112 31.0327 48.2146 30.9639 48.2045 30.8964C48.1943 30.829 48.1708 30.7643 48.1354 30.7061C48.0999 30.6479 48.0532 30.5974 47.9979 30.5576C45.7495 31.3588 43.5554 32.3179 41.3643 33.2741C39.471 34.0982 37.5233 34.9626 36.1055 36.4845L47.4365 31.7292C47.6981 31.6473 47.9307 31.4918 48.1068 31.2812Z" fill="#58442D"/>
<path d="M43.1464 5.78118C43.2152 5.65196 43.0949 5.49402 42.9803 5.41936C42.4878 5.04778 41.8757 4.87187 41.2617 4.92545C41.2617 5.60889 42.1983 5.62611 42.7426 5.83287C42.8829 5.88743 43.0748 5.91327 43.1464 5.78118Z" fill="#58442D"/>
<path d="M38.6962 4.32011C38.6232 4.33537 38.5552 4.36896 38.4986 4.41774C38.4771 4.43496 38.4597 4.4568 38.4478 4.48166C38.4359 4.50651 38.4297 4.53374 38.4297 4.56132C38.4297 4.5889 38.4359 4.61613 38.4478 4.64098C38.4597 4.66584 38.4771 4.68768 38.4986 4.7049C38.5618 4.75088 38.6358 4.77958 38.7134 4.78817C39.2175 4.85135 39.7932 5.3309 40.2171 4.65034C39.9994 4.49436 39.7522 4.38462 39.4907 4.32784C39.2291 4.27105 38.9588 4.26842 38.6962 4.32011Z" fill="#58442D"/>
<path d="M40.5921 5.5964C40.6179 5.54316 40.624 5.48247 40.6093 5.42515C40.5946 5.36783 40.5601 5.3176 40.5119 5.2834C40.4795 5.26955 40.4441 5.26413 40.4091 5.26764C40.374 5.27116 40.3404 5.28349 40.3114 5.3035C40.2549 5.3448 40.2047 5.39414 40.1625 5.44995L39.286 6.52105C39.2417 6.56246 39.2066 6.61275 39.1829 6.66865C39.1592 6.72455 39.1475 6.78481 39.1485 6.84553C39.157 6.88654 39.1748 6.92501 39.2007 6.9579C39.2265 6.9908 39.2597 7.01721 39.2974 7.03505C39.3719 7.06968 39.4531 7.08733 39.5352 7.08674C39.7013 7.08674 39.7844 7.41123 39.9419 7.35093C40.0422 7.31072 40.6207 7.23319 40.6837 7.14705C40.8699 6.90009 40.1109 6.53827 40.2369 6.24538C40.2799 6.13626 40.5491 5.70552 40.5921 5.5964Z" fill="#58442D"/>
</svg>
